<svg id="mermaid-svg" width="100%" xmlns="http://www.w3.org/2000/svg" style="max-width: 846.7483520507812px;" viewBox="0 0 846.7483520507812 884" role="graphics-document document" aria-roledescription="er" xmlns:xlink="http://www.w3.org/1999/xlink"><style xmlns="http://www.w3.org/1999/xhtml">@import url("https://cdnjs.cloudflare.com/ajax/libs/font-awesome/6.7.1/css/all.min.css");</style><style>#mermaid-svg{font-family:"trebuchet ms",verdana,arial,sans-serif;font-size:16px;fill:#333;}#mermaid-svg .error-icon{fill:#552222;}#mermaid-svg .error-text{fill:#552222;stroke:#552222;}#mermaid-svg .edge-thickness-normal{stroke-width:1px;}#mermaid-svg .edge-thickness-thick{stroke-width:3.5px;}#mermaid-svg .edge-pattern-solid{stroke-dasharray:0;}#mermaid-svg .edge-thickness-invisible{stroke-width:0;fill:none;}#mermaid-svg .edge-pattern-dashed{stroke-dasharray:3;}#mermaid-svg .edge-pattern-dotted{stroke-dasharray:2;}#mermaid-svg .marker{fill:#333333;stroke:#333333;}#mermaid-svg .marker.cross{stroke:#333333;}#mermaid-svg svg{font-family:"trebuchet ms",verdana,arial,sans-serif;font-size:16px;}#mermaid-svg p{margin:0;}#mermaid-svg .entityBox{fill:#ECECFF;stroke:#9370DB;}#mermaid-svg .attributeBoxOdd{fill:#ffffff;stroke:#9370DB;}#mermaid-svg .attributeBoxEven{fill:#f2f2f2;stroke:#9370DB;}#mermaid-svg .relationshipLabelBox{fill:hsl(80, 100%, 96.2745098039%);opacity:0.7;background-color:hsl(80, 100%, 96.2745098039%);}#mermaid-svg .relationshipLabelBox rect{opacity:0.5;}#mermaid-svg .relationshipLine{stroke:#333333;}#mermaid-svg .entityTitleText{text-anchor:middle;font-size:18px;fill:#333;}#mermaid-svg #MD_PARENT_START{fill:#f5f5f5!important;stroke:#333333!important;stroke-width:1;}#mermaid-svg #MD_PARENT_END{fill:#f5f5f5!important;stroke:#333333!important;stroke-width:1;}#mermaid-svg :root{--mermaid-font-family:"trebuchet ms",verdana,arial,sans-serif;}</style><g/><defs><marker id="MD_PARENT_START" refX="0" refY="7" markerWidth="190" markerHeight="240" orient="auto"><path d="M 18,7 L9,13 L1,7 L9,1 Z"/></marker></defs><defs><marker id="MD_PARENT_END" refX="19" refY="7" markerWidth="20" markerHeight="28" orient="auto"><path d="M 18,7 L9,13 L1,7 L9,1 Z"/></marker></defs><defs><marker id="ONLY_ONE_START" refX="0" refY="9" markerWidth="18" markerHeight="18" orient="auto"><path stroke="gray" fill="none" d="M9,0 L9,18 M15,0 L15,18"/></marker></defs><defs><marker id="ONLY_ONE_END" refX="18" refY="9" markerWidth="18" markerHeight="18" orient="auto"><path stroke="gray" fill="none" d="M3,0 L3,18 M9,0 L9,18"/></marker></defs><defs><marker id="ZERO_OR_ONE_START" refX="0" refY="9" markerWidth="30" markerHeight="18" orient="auto"><circle stroke="gray" fill="white" cx="21" cy="9" r="6"/><path stroke="gray" fill="none" d="M9,0 L9,18"/></marker></defs><defs><marker id="ZERO_OR_ONE_END" refX="30" refY="9" markerWidth="30" markerHeight="18" orient="auto"><circle stroke="gray" fill="white" cx="9" cy="9" r="6"/><path stroke="gray" fill="none" d="M21,0 L21,18"/></marker></defs><defs><marker id="ONE_OR_MORE_START" refX="18" refY="18" markerWidth="45" markerHeight="36" orient="auto"><path stroke="gray" fill="none" d="M0,18 Q 18,0 36,18 Q 18,36 0,18 M42,9 L42,27"/></marker></defs><defs><marker id="ONE_OR_MORE_END" refX="27" refY="18" markerWidth="45" markerHeight="36" orient="auto"><path stroke="gray" fill="none" d="M3,9 L3,27 M9,18 Q27,0 45,18 Q27,36 9,18"/></marker></defs><defs><marker id="ZERO_OR_MORE_START" refX="18" refY="18" markerWidth="57" markerHeight="36" orient="auto"><circle stroke="gray" fill="white" cx="48" cy="18" r="6"/><path stroke="gray" fill="none" d="M0,18 Q18,0 36,18 Q18,36 0,18"/></marker></defs><defs><marker id="ZERO_OR_MORE_END" refX="39" refY="18" markerWidth="57" markerHeight="36" orient="auto"><circle stroke="gray" fill="white" cx="9" cy="18" r="6"/><path stroke="gray" fill="none" d="M21,18 Q39,0 57,18 Q39,36 21,18"/></marker></defs><path class="er relationshipLine" d="M237.614,140.937L209.678,158.781C181.742,176.625,125.871,212.312,97.936,253.156C70,294,70,340,70,363L70,386" marker-end="url(#ZERO_OR_MORE_END)" marker-start="url(#ONLY_ONE_START)" style="stroke: gray; fill: none;"/><path class="er relationshipLine" d="M287.614,187L287.614,197.167C287.614,207.333,287.614,227.667,287.614,249.833C287.614,272,287.614,296,287.614,308L287.614,320" marker-end="url(#ZERO_OR_MORE_END)" marker-start="url(#ONLY_ONE_START)" style="stroke: gray; fill: none;"/><path class="er relationshipLine" d="M337.614,123.384L409.807,144.154C482.001,164.923,626.388,206.461,698.582,246.564C770.775,286.667,770.775,325.333,770.775,344.667L770.775,364" marker-end="url(#ONLY_ONE_END)" marker-start="url(#ONLY_ONE_START)" style="stroke: gray; fill: none;"/><path class="er relationshipLine" d="M287.614,564L287.614,576C287.614,588,287.614,612,290.641,636C293.668,660,299.723,684,302.75,696L305.777,708" marker-end="url(#ONE_OR_MORE_END)" marker-start="url(#ONLY_ONE_START)" style="stroke: gray; fill: none;"/><path class="er relationshipLine" d="M589.661,586L591.809,594.333C593.957,602.667,598.252,619.333,600.4,636C602.548,652.667,602.548,669.333,602.548,677.667L602.548,686" marker-end="url(#ONE_OR_MORE_END)" marker-start="url(#ONLY_ONE_START)" style="stroke: gray; fill: none;"/><path class="er relationshipLine" d="M552.548,198L552.548,206.333C552.548,214.667,552.548,231.333,552.548,248C552.548,264.667,552.548,281.333,552.548,289.667L552.548,298" marker-end="url(#ZERO_OR_MORE_END)" marker-start="url(#ONLY_ONE_START)" style="stroke: gray; fill: none;"/><path class="er relationshipLine" d="M490.293,562.773L484.002,574.978C477.712,587.182,465.13,611.591,445.527,638.043C425.925,664.495,399.302,692.989,385.991,707.237L372.68,721.484" marker-end="url(#ZERO_OR_MORE_END)" marker-start="url(#ONLY_ONE_START)" style="stroke: gray; fill: none;"/><g id="entity-User-818c511a-4a32-5484-ba70-875d765a9175" transform="translate(237.61373901367188,31 )"><rect class="er entityBox" x="0" y="0" width="100" height="156"/><text class="er entityLabel" id="text-entity-User-818c511a-4a32-5484-ba70-875d765a9175" x="0" y="0" transform="translate(50,12)" style="dominant-baseline: middle; text-anchor: middle; font-size: 12px;">User</text><rect class="er attributeBoxOdd" x="0" y="24" width="41.875" height="22"/><text class="er entityLabel" id="text-entity-User-818c511a-4a32-5484-ba70-875d765a9175-attr-1-type" x="0" y="0" transform="translate(5,35)" style="dominant-baseline: middle; font-size: 10.2px;">string</text><rect class="er attributeBoxOdd" x="41.875" y="24" width="58.125" height="22"/><text class="er entityLabel" id="text-entity-User-818c511a-4a32-5484-ba70-875d765a9175-attr-1-name" x="0" y="0" transform="translate(46.875,35)" style="dominant-baseline: middle; font-size: 10.2px;">_id</text><rect class="er attributeBoxEven" x="0" y="46" width="41.875" height="22"/><text class="er entityLabel" id="text-entity-User-818c511a-4a32-5484-ba70-875d765a9175-attr-2-type" x="0" y="0" transform="translate(5,57)" style="dominant-baseline: middle; font-size: 10.2px;">string</text><rect class="er attributeBoxEven" x="41.875" y="46" width="58.125" height="22"/><text class="er entityLabel" id="text-entity-User-818c511a-4a32-5484-ba70-875d765a9175-attr-2-name" x="0" y="0" transform="translate(46.875,57)" style="dominant-baseline: middle; font-size: 10.2px;">name</text><rect class="er attributeBoxOdd" x="0" y="68" width="41.875" height="22"/><text class="er entityLabel" id="text-entity-User-818c511a-4a32-5484-ba70-875d765a9175-attr-3-type" x="0" y="0" transform="translate(5,79)" style="dominant-baseline: middle; font-size: 10.2px;">string</text><rect class="er attributeBoxOdd" x="41.875" y="68" width="58.125" height="22"/><text class="er entityLabel" id="text-entity-User-818c511a-4a32-5484-ba70-875d765a9175-attr-3-name" x="0" y="0" transform="translate(46.875,79)" style="dominant-baseline: middle; font-size: 10.2px;">email</text><rect class="er attributeBoxEven" x="0" y="90" width="41.875" height="22"/><text class="er entityLabel" id="text-entity-User-818c511a-4a32-5484-ba70-875d765a9175-attr-4-type" x="0" y="0" transform="translate(5,101)" style="dominant-baseline: middle; font-size: 10.2px;">string</text><rect class="er attributeBoxEven" x="41.875" y="90" width="58.125" height="22"/><text class="er entityLabel" id="text-entity-User-818c511a-4a32-5484-ba70-875d765a9175-attr-4-name" x="0" y="0" transform="translate(46.875,101)" style="dominant-baseline: middle; font-size: 10.2px;">password</text><rect class="er attributeBoxOdd" x="0" y="112" width="41.875" height="22"/><text class="er entityLabel" id="text-entity-User-818c511a-4a32-5484-ba70-875d765a9175-attr-5-type" x="0" y="0" transform="translate(5,123)" style="dominant-baseline: middle; font-size: 10.2px;">string</text><rect class="er attributeBoxOdd" x="41.875" y="112" width="58.125" height="22"/><text class="er entityLabel" id="text-entity-User-818c511a-4a32-5484-ba70-875d765a9175-attr-5-name" x="0" y="0" transform="translate(46.875,123)" style="dominant-baseline: middle; font-size: 10.2px;">role</text><rect class="er attributeBoxEven" x="0" y="134" width="41.875" height="22"/><text class="er entityLabel" id="text-entity-User-818c511a-4a32-5484-ba70-875d765a9175-attr-6-type" x="0" y="0" transform="translate(5,145)" style="dominant-baseline: middle; font-size: 10.2px;">array</text><rect class="er attributeBoxEven" x="41.875" y="134" width="58.125" height="22"/><text class="er entityLabel" id="text-entity-User-818c511a-4a32-5484-ba70-875d765a9175-attr-6-name" x="0" y="0" transform="translate(46.875,145)" style="dominant-baseline: middle; font-size: 10.2px;">address</text></g><g id="entity-Address-c76279a2-ae7d-51c9-9b7a-8d5514196196" transform="translate(20,386 )"><rect class="er entityBox" x="0" y="0" width="100" height="112"/><text class="er entityLabel" id="text-entity-Address-c76279a2-ae7d-51c9-9b7a-8d5514196196" x="0" y="0" transform="translate(50,12)" style="dominant-baseline: middle; text-anchor: middle; font-size: 12px;">Address</text><rect class="er attributeBoxOdd" x="0" y="24" width="44.533355712890625" height="22"/><text class="er entityLabel" id="text-entity-Address-c76279a2-ae7d-51c9-9b7a-8d5514196196-attr-1-type" x="0" y="0" transform="translate(5,35)" style="dominant-baseline: middle; font-size: 10.2px;">string</text><rect class="er attributeBoxOdd" x="44.533355712890625" y="24" width="55.466644287109375" height="22"/><text class="er entityLabel" id="text-entity-Address-c76279a2-ae7d-51c9-9b7a-8d5514196196-attr-1-name" x="0" y="0" transform="translate(49.533355712890625,35)" style="dominant-baseline: middle; font-size: 10.2px;">street</text><rect class="er attributeBoxEven" x="0" y="46" width="44.533355712890625" height="22"/><text class="er entityLabel" id="text-entity-Address-c76279a2-ae7d-51c9-9b7a-8d5514196196-attr-2-type" x="0" y="0" transform="translate(5,57)" style="dominant-baseline: middle; font-size: 10.2px;">string</text><rect class="er attributeBoxEven" x="44.533355712890625" y="46" width="55.466644287109375" height="22"/><text class="er entityLabel" id="text-entity-Address-c76279a2-ae7d-51c9-9b7a-8d5514196196-attr-2-name" x="0" y="0" transform="translate(49.533355712890625,57)" style="dominant-baseline: middle; font-size: 10.2px;">city</text><rect class="er attributeBoxOdd" x="0" y="68" width="44.533355712890625" height="22"/><text class="er entityLabel" id="text-entity-Address-c76279a2-ae7d-51c9-9b7a-8d5514196196-attr-3-type" x="0" y="0" transform="translate(5,79)" style="dominant-baseline: middle; font-size: 10.2px;">string</text><rect class="er attributeBoxOdd" x="44.533355712890625" y="68" width="55.466644287109375" height="22"/><text class="er entityLabel" id="text-entity-Address-c76279a2-ae7d-51c9-9b7a-8d5514196196-attr-3-name" x="0" y="0" transform="translate(49.533355712890625,79)" style="dominant-baseline: middle; font-size: 10.2px;">state</text><rect class="er attributeBoxEven" x="0" y="90" width="44.533355712890625" height="22"/><text class="er entityLabel" id="text-entity-Address-c76279a2-ae7d-51c9-9b7a-8d5514196196-attr-4-type" x="0" y="0" transform="translate(5,101)" style="dominant-baseline: middle; font-size: 10.2px;">string</text><rect class="er attributeBoxEven" x="44.533355712890625" y="90" width="55.466644287109375" height="22"/><text class="er entityLabel" id="text-entity-Address-c76279a2-ae7d-51c9-9b7a-8d5514196196-attr-4-name" x="0" y="0" transform="translate(49.533355712890625,101)" style="dominant-baseline: middle; font-size: 10.2px;">zipCode</text></g><g id="entity-Product-8913f459-c6e1-5923-8b2e-55129fac4b99" transform="translate(490.2934265136719,298 )"><rect class="er entityBox" x="0" y="0" width="124.50872802734375" height="288"/><text class="er entityLabel" id="text-entity-Product-8913f459-c6e1-5923-8b2e-55129fac4b99" x="0" y="0" transform="translate(62.254364013671875,12)" style="dominant-baseline: middle; text-anchor: middle; font-size: 12px;">Product</text><rect class="er attributeBoxOdd" x="0" y="24" width="52.02435302734375" height="22"/><text class="er entityLabel" id="text-entity-Product-8913f459-c6e1-5923-8b2e-55129fac4b99-attr-1-type" x="0" y="0" transform="translate(5,35)" style="dominant-baseline: middle; font-size: 10.2px;">string</text><rect class="er attributeBoxOdd" x="52.02435302734375" y="24" width="72.484375" height="22"/><text class="er entityLabel" id="text-entity-Product-8913f459-c6e1-5923-8b2e-55129fac4b99-attr-1-name" x="0" y="0" transform="translate(57.02435302734375,35)" style="dominant-baseline: middle; font-size: 10.2px;">_id</text><rect class="er attributeBoxEven" x="0" y="46" width="52.02435302734375" height="22"/><text class="er entityLabel" id="text-entity-Product-8913f459-c6e1-5923-8b2e-55129fac4b99-attr-2-type" x="0" y="0" transform="translate(5,57)" style="dominant-baseline: middle; font-size: 10.2px;">string</text><rect class="er attributeBoxEven" x="52.02435302734375" y="46" width="72.484375" height="22"/><text class="er entityLabel" id="text-entity-Product-8913f459-c6e1-5923-8b2e-55129fac4b99-attr-2-name" x="0" y="0" transform="translate(57.02435302734375,57)" style="dominant-baseline: middle; font-size: 10.2px;">name</text><rect class="er attributeBoxOdd" x="0" y="68" width="52.02435302734375" height="22"/><text class="er entityLabel" id="text-entity-Product-8913f459-c6e1-5923-8b2e-55129fac4b99-attr-3-type" x="0" y="0" transform="translate(5,79)" style="dominant-baseline: middle; font-size: 10.2px;">string</text><rect class="er attributeBoxOdd" x="52.02435302734375" y="68" width="72.484375" height="22"/><text class="er entityLabel" id="text-entity-Product-8913f459-c6e1-5923-8b2e-55129fac4b99-attr-3-name" x="0" y="0" transform="translate(57.02435302734375,79)" style="dominant-baseline: middle; font-size: 10.2px;">description</text><rect class="er attributeBoxEven" x="0" y="90" width="52.02435302734375" height="22"/><text class="er entityLabel" id="text-entity-Product-8913f459-c6e1-5923-8b2e-55129fac4b99-attr-4-type" x="0" y="0" transform="translate(5,101)" style="dominant-baseline: middle; font-size: 10.2px;">string</text><rect class="er attributeBoxEven" x="52.02435302734375" y="90" width="72.484375" height="22"/><text class="er entityLabel" id="text-entity-Product-8913f459-c6e1-5923-8b2e-55129fac4b99-attr-4-name" x="0" y="0" transform="translate(57.02435302734375,101)" style="dominant-baseline: middle; font-size: 10.2px;">brand</text><rect class="er attributeBoxOdd" x="0" y="112" width="52.02435302734375" height="22"/><text class="er entityLabel" id="text-entity-Product-8913f459-c6e1-5923-8b2e-55129fac4b99-attr-5-type" x="0" y="0" transform="translate(5,123)" style="dominant-baseline: middle; font-size: 10.2px;">string</text><rect class="er attributeBoxOdd" x="52.02435302734375" y="112" width="72.484375" height="22"/><text class="er entityLabel" id="text-entity-Product-8913f459-c6e1-5923-8b2e-55129fac4b99-attr-5-name" x="0" y="0" transform="translate(57.02435302734375,123)" style="dominant-baseline: middle; font-size: 10.2px;">category</text><rect class="er attributeBoxEven" x="0" y="134" width="52.02435302734375" height="22"/><text class="er entityLabel" id="text-entity-Product-8913f459-c6e1-5923-8b2e-55129fac4b99-attr-6-type" x="0" y="0" transform="translate(5,145)" style="dominant-baseline: middle; font-size: 10.2px;">array</text><rect class="er attributeBoxEven" x="52.02435302734375" y="134" width="72.484375" height="22"/><text class="er entityLabel" id="text-entity-Product-8913f459-c6e1-5923-8b2e-55129fac4b99-attr-6-name" x="0" y="0" transform="translate(57.02435302734375,145)" style="dominant-baseline: middle; font-size: 10.2px;">variations</text><rect class="er attributeBoxOdd" x="0" y="156" width="52.02435302734375" height="22"/><text class="er entityLabel" id="text-entity-Product-8913f459-c6e1-5923-8b2e-55129fac4b99-attr-7-type" x="0" y="0" transform="translate(5,167)" style="dominant-baseline: middle; font-size: 10.2px;">map</text><rect class="er attributeBoxOdd" x="52.02435302734375" y="156" width="72.484375" height="22"/><text class="er entityLabel" id="text-entity-Product-8913f459-c6e1-5923-8b2e-55129fac4b99-attr-7-name" x="0" y="0" transform="translate(57.02435302734375,167)" style="dominant-baseline: middle; font-size: 10.2px;">specifications</text><rect class="er attributeBoxEven" x="0" y="178" width="52.02435302734375" height="22"/><text class="er entityLabel" id="text-entity-Product-8913f459-c6e1-5923-8b2e-55129fac4b99-attr-8-type" x="0" y="0" transform="translate(5,189)" style="dominant-baseline: middle; font-size: 10.2px;">array</text><rect class="er attributeBoxEven" x="52.02435302734375" y="178" width="72.484375" height="22"/><text class="er entityLabel" id="text-entity-Product-8913f459-c6e1-5923-8b2e-55129fac4b99-attr-8-name" x="0" y="0" transform="translate(57.02435302734375,189)" style="dominant-baseline: middle; font-size: 10.2px;">reviewIDs</text><rect class="er attributeBoxOdd" x="0" y="200" width="52.02435302734375" height="22"/><text class="er entityLabel" id="text-entity-Product-8913f459-c6e1-5923-8b2e-55129fac4b99-attr-9-type" x="0" y="0" transform="translate(5,211)" style="dominant-baseline: middle; font-size: 10.2px;">float</text><rect class="er attributeBoxOdd" x="52.02435302734375" y="200" width="72.484375" height="22"/><text class="er entityLabel" id="text-entity-Product-8913f459-c6e1-5923-8b2e-55129fac4b99-attr-9-name" x="0" y="0" transform="translate(57.02435302734375,211)" style="dominant-baseline: middle; font-size: 10.2px;">rating</text><rect class="er attributeBoxEven" x="0" y="222" width="52.02435302734375" height="22"/><text class="er entityLabel" id="text-entity-Product-8913f459-c6e1-5923-8b2e-55129fac4b99-attr-10-type" x="0" y="0" transform="translate(5,233)" style="dominant-baseline: middle; font-size: 10.2px;">datetime</text><rect class="er attributeBoxEven" x="52.02435302734375" y="222" width="72.484375" height="22"/><text class="er entityLabel" id="text-entity-Product-8913f459-c6e1-5923-8b2e-55129fac4b99-attr-10-name" x="0" y="0" transform="translate(57.02435302734375,233)" style="dominant-baseline: middle; font-size: 10.2px;">created_at</text><rect class="er attributeBoxOdd" x="0" y="244" width="52.02435302734375" height="22"/><text class="er entityLabel" id="text-entity-Product-8913f459-c6e1-5923-8b2e-55129fac4b99-attr-11-type" x="0" y="0" transform="translate(5,255)" style="dominant-baseline: middle; font-size: 10.2px;">datetime</text><rect class="er attributeBoxOdd" x="52.02435302734375" y="244" width="72.484375" height="22"/><text class="er entityLabel" id="text-entity-Product-8913f459-c6e1-5923-8b2e-55129fac4b99-attr-11-name" x="0" y="0" transform="translate(57.02435302734375,255)" style="dominant-baseline: middle; font-size: 10.2px;">updated_at</text><rect class="er attributeBoxEven" x="0" y="266" width="52.02435302734375" height="22"/><text class="er entityLabel" id="text-entity-Product-8913f459-c6e1-5923-8b2e-55129fac4b99-attr-12-type" x="0" y="0" transform="translate(5,277)" style="dominant-baseline: middle; font-size: 10.2px;">datetime</text><rect class="er attributeBoxEven" x="52.02435302734375" y="266" width="72.484375" height="22"/><text class="er entityLabel" id="text-entity-Product-8913f459-c6e1-5923-8b2e-55129fac4b99-attr-12-name" x="0" y="0" transform="translate(57.02435302734375,277)" style="dominant-baseline: middle; font-size: 10.2px;">deleted_at</text></g><g id="entity-Variation-f4ebd8ea-d11e-545f-b4d4-2eea3f1b673b" transform="translate(552.5477905273438,686 )"><rect class="er entityBox" x="0" y="0" width="100" height="178"/><text class="er entityLabel" id="text-entity-Variation-f4ebd8ea-d11e-545f-b4d4-2eea3f1b673b" x="0" y="0" transform="translate(50,12)" style="dominant-baseline: middle; text-anchor: middle; font-size: 12px;">Variation</text><rect class="er attributeBoxOdd" x="0" y="24" width="47.1015625" height="22"/><text class="er entityLabel" id="text-entity-Variation-f4ebd8ea-d11e-545f-b4d4-2eea3f1b673b-attr-1-type" x="0" y="0" transform="translate(5,35)" style="dominant-baseline: middle; font-size: 10.2px;">array</text><rect class="er attributeBoxOdd" x="47.1015625" y="24" width="52.8984375" height="22"/><text class="er entityLabel" id="text-entity-Variation-f4ebd8ea-d11e-545f-b4d4-2eea3f1b673b-attr-1-name" x="0" y="0" transform="translate(52.1015625,35)" style="dominant-baseline: middle; font-size: 10.2px;">images</text><rect class="er attributeBoxEven" x="0" y="46" width="47.1015625" height="22"/><text class="er entityLabel" id="text-entity-Variation-f4ebd8ea-d11e-545f-b4d4-2eea3f1b673b-attr-2-type" x="0" y="0" transform="translate(5,57)" style="dominant-baseline: middle; font-size: 10.2px;">string</text><rect class="er attributeBoxEven" x="47.1015625" y="46" width="52.8984375" height="22"/><text class="er entityLabel" id="text-entity-Variation-f4ebd8ea-d11e-545f-b4d4-2eea3f1b673b-attr-2-name" x="0" y="0" transform="translate(52.1015625,57)" style="dominant-baseline: middle; font-size: 10.2px;">sku</text><rect class="er attributeBoxOdd" x="0" y="68" width="47.1015625" height="22"/><text class="er entityLabel" id="text-entity-Variation-f4ebd8ea-d11e-545f-b4d4-2eea3f1b673b-attr-3-type" x="0" y="0" transform="translate(5,79)" style="dominant-baseline: middle; font-size: 10.2px;">int</text><rect class="er attributeBoxOdd" x="47.1015625" y="68" width="52.8984375" height="22"/><text class="er entityLabel" id="text-entity-Variation-f4ebd8ea-d11e-545f-b4d4-2eea3f1b673b-attr-3-name" x="0" y="0" transform="translate(52.1015625,79)" style="dominant-baseline: middle; font-size: 10.2px;">stock</text><rect class="er attributeBoxEven" x="0" y="90" width="47.1015625" height="22"/><text class="er entityLabel" id="text-entity-Variation-f4ebd8ea-d11e-545f-b4d4-2eea3f1b673b-attr-4-type" x="0" y="0" transform="translate(5,101)" style="dominant-baseline: middle; font-size: 10.2px;">string</text><rect class="er attributeBoxEven" x="47.1015625" y="90" width="52.8984375" height="22"/><text class="er entityLabel" id="text-entity-Variation-f4ebd8ea-d11e-545f-b4d4-2eea3f1b673b-attr-4-name" x="0" y="0" transform="translate(52.1015625,101)" style="dominant-baseline: middle; font-size: 10.2px;">size</text><rect class="er attributeBoxOdd" x="0" y="112" width="47.1015625" height="22"/><text class="er entityLabel" id="text-entity-Variation-f4ebd8ea-d11e-545f-b4d4-2eea3f1b673b-attr-5-type" x="0" y="0" transform="translate(5,123)" style="dominant-baseline: middle; font-size: 10.2px;">string</text><rect class="er attributeBoxOdd" x="47.1015625" y="112" width="52.8984375" height="22"/><text class="er entityLabel" id="text-entity-Variation-f4ebd8ea-d11e-545f-b4d4-2eea3f1b673b-attr-5-name" x="0" y="0" transform="translate(52.1015625,123)" style="dominant-baseline: middle; font-size: 10.2px;">color</text><rect class="er attributeBoxEven" x="0" y="134" width="47.1015625" height="22"/><text class="er entityLabel" id="text-entity-Variation-f4ebd8ea-d11e-545f-b4d4-2eea3f1b673b-attr-6-type" x="0" y="0" transform="translate(5,145)" style="dominant-baseline: middle; font-size: 10.2px;">float</text><rect class="er attributeBoxEven" x="47.1015625" y="134" width="52.8984375" height="22"/><text class="er entityLabel" id="text-entity-Variation-f4ebd8ea-d11e-545f-b4d4-2eea3f1b673b-attr-6-name" x="0" y="0" transform="translate(52.1015625,145)" style="dominant-baseline: middle; font-size: 10.2px;">price</text><rect class="er attributeBoxOdd" x="0" y="156" width="47.1015625" height="22"/><text class="er entityLabel" id="text-entity-Variation-f4ebd8ea-d11e-545f-b4d4-2eea3f1b673b-attr-7-type" x="0" y="0" transform="translate(5,167)" style="dominant-baseline: middle; font-size: 10.2px;">float</text><rect class="er attributeBoxOdd" x="47.1015625" y="156" width="52.8984375" height="22"/><text class="er entityLabel" id="text-entity-Variation-f4ebd8ea-d11e-545f-b4d4-2eea3f1b673b-attr-7-name" x="0" y="0" transform="translate(52.1015625,167)" style="dominant-baseline: middle; font-size: 10.2px;">sale</text></g><g id="entity-Order-3ec22774-e93b-529c-bc12-1dfdb28f8e64" transform="translate(220,320 )"><rect class="er entityBox" x="0" y="0" width="135.22747802734375" height="244"/><text class="er entityLabel" id="text-entity-Order-3ec22774-e93b-529c-bc12-1dfdb28f8e64" x="0" y="0" transform="translate(67.61373901367188,12)" style="dominant-baseline: middle; text-anchor: middle; font-size: 12px;">Order</text><rect class="er attributeBoxOdd" x="0" y="24" width="52.02435302734375" height="22"/><text class="er entityLabel" id="text-entity-Order-3ec22774-e93b-529c-bc12-1dfdb28f8e64-attr-1-type" x="0" y="0" transform="translate(5,35)" style="dominant-baseline: middle; font-size: 10.2px;">string</text><rect class="er attributeBoxOdd" x="52.02435302734375" y="24" width="83.203125" height="22"/><text class="er entityLabel" id="text-entity-Order-3ec22774-e93b-529c-bc12-1dfdb28f8e64-attr-1-name" x="0" y="0" transform="translate(57.02435302734375,35)" style="dominant-baseline: middle; font-size: 10.2px;">_id</text><rect class="er attributeBoxEven" x="0" y="46" width="52.02435302734375" height="22"/><text class="er entityLabel" id="text-entity-Order-3ec22774-e93b-529c-bc12-1dfdb28f8e64-attr-2-type" x="0" y="0" transform="translate(5,57)" style="dominant-baseline: middle; font-size: 10.2px;">string</text><rect class="er attributeBoxEven" x="52.02435302734375" y="46" width="83.203125" height="22"/><text class="er entityLabel" id="text-entity-Order-3ec22774-e93b-529c-bc12-1dfdb28f8e64-attr-2-name" x="0" y="0" transform="translate(57.02435302734375,57)" style="dominant-baseline: middle; font-size: 10.2px;">userID</text><rect class="er attributeBoxOdd" x="0" y="68" width="52.02435302734375" height="22"/><text class="er entityLabel" id="text-entity-Order-3ec22774-e93b-529c-bc12-1dfdb28f8e64-attr-3-type" x="0" y="0" transform="translate(5,79)" style="dominant-baseline: middle; font-size: 10.2px;">string</text><rect class="er attributeBoxOdd" x="52.02435302734375" y="68" width="83.203125" height="22"/><text class="er entityLabel" id="text-entity-Order-3ec22774-e93b-529c-bc12-1dfdb28f8e64-attr-3-name" x="0" y="0" transform="translate(57.02435302734375,79)" style="dominant-baseline: middle; font-size: 10.2px;">status</text><rect class="er attributeBoxEven" x="0" y="90" width="52.02435302734375" height="22"/><text class="er entityLabel" id="text-entity-Order-3ec22774-e93b-529c-bc12-1dfdb28f8e64-attr-4-type" x="0" y="0" transform="translate(5,101)" style="dominant-baseline: middle; font-size: 10.2px;">object</text><rect class="er attributeBoxEven" x="52.02435302734375" y="90" width="83.203125" height="22"/><text class="er entityLabel" id="text-entity-Order-3ec22774-e93b-529c-bc12-1dfdb28f8e64-attr-4-name" x="0" y="0" transform="translate(57.02435302734375,101)" style="dominant-baseline: middle; font-size: 10.2px;">shippingAddress</text><rect class="er attributeBoxOdd" x="0" y="112" width="52.02435302734375" height="22"/><text class="er entityLabel" id="text-entity-Order-3ec22774-e93b-529c-bc12-1dfdb28f8e64-attr-5-type" x="0" y="0" transform="translate(5,123)" style="dominant-baseline: middle; font-size: 10.2px;">array</text><rect class="er attributeBoxOdd" x="52.02435302734375" y="112" width="83.203125" height="22"/><text class="er entityLabel" id="text-entity-Order-3ec22774-e93b-529c-bc12-1dfdb28f8e64-attr-5-name" x="0" y="0" transform="translate(57.02435302734375,123)" style="dominant-baseline: middle; font-size: 10.2px;">items</text><rect class="er attributeBoxEven" x="0" y="134" width="52.02435302734375" height="22"/><text class="er entityLabel" id="text-entity-Order-3ec22774-e93b-529c-bc12-1dfdb28f8e64-attr-6-type" x="0" y="0" transform="translate(5,145)" style="dominant-baseline: middle; font-size: 10.2px;">float</text><rect class="er attributeBoxEven" x="52.02435302734375" y="134" width="83.203125" height="22"/><text class="er entityLabel" id="text-entity-Order-3ec22774-e93b-529c-bc12-1dfdb28f8e64-attr-6-name" x="0" y="0" transform="translate(57.02435302734375,145)" style="dominant-baseline: middle; font-size: 10.2px;">totalPrice</text><rect class="er attributeBoxOdd" x="0" y="156" width="52.02435302734375" height="22"/><text class="er entityLabel" id="text-entity-Order-3ec22774-e93b-529c-bc12-1dfdb28f8e64-attr-7-type" x="0" y="0" transform="translate(5,167)" style="dominant-baseline: middle; font-size: 10.2px;">string</text><rect class="er attributeBoxOdd" x="52.02435302734375" y="156" width="83.203125" height="22"/><text class="er entityLabel" id="text-entity-Order-3ec22774-e93b-529c-bc12-1dfdb28f8e64-attr-7-name" x="0" y="0" transform="translate(57.02435302734375,167)" style="dominant-baseline: middle; font-size: 10.2px;">paymentMethod</text><rect class="er attributeBoxEven" x="0" y="178" width="52.02435302734375" height="22"/><text class="er entityLabel" id="text-entity-Order-3ec22774-e93b-529c-bc12-1dfdb28f8e64-attr-8-type" x="0" y="0" transform="translate(5,189)" style="dominant-baseline: middle; font-size: 10.2px;">datetime</text><rect class="er attributeBoxEven" x="52.02435302734375" y="178" width="83.203125" height="22"/><text class="er entityLabel" id="text-entity-Order-3ec22774-e93b-529c-bc12-1dfdb28f8e64-attr-8-name" x="0" y="0" transform="translate(57.02435302734375,189)" style="dominant-baseline: middle; font-size: 10.2px;">created_at</text><rect class="er attributeBoxOdd" x="0" y="200" width="52.02435302734375" height="22"/><text class="er entityLabel" id="text-entity-Order-3ec22774-e93b-529c-bc12-1dfdb28f8e64-attr-9-type" x="0" y="0" transform="translate(5,211)" style="dominant-baseline: middle; font-size: 10.2px;">datetime</text><rect class="er attributeBoxOdd" x="52.02435302734375" y="200" width="83.203125" height="22"/><text class="er entityLabel" id="text-entity-Order-3ec22774-e93b-529c-bc12-1dfdb28f8e64-attr-9-name" x="0" y="0" transform="translate(57.02435302734375,211)" style="dominant-baseline: middle; font-size: 10.2px;">updated_at</text><rect class="er attributeBoxEven" x="0" y="222" width="52.02435302734375" height="22"/><text class="er entityLabel" id="text-entity-Order-3ec22774-e93b-529c-bc12-1dfdb28f8e64-attr-10-type" x="0" y="0" transform="translate(5,233)" style="dominant-baseline: middle; font-size: 10.2px;">datetime</text><rect class="er attributeBoxEven" x="52.02435302734375" y="222" width="83.203125" height="22"/><text class="er entityLabel" id="text-entity-Order-3ec22774-e93b-529c-bc12-1dfdb28f8e64-attr-10-name" x="0" y="0" transform="translate(57.02435302734375,233)" style="dominant-baseline: middle; font-size: 10.2px;">deleted_at</text></g><g id="entity-Item-8a1f935b-4333-55f4-bdb2-98b6af61c805" transform="translate(272.6796875,708 )"><rect class="er entityBox" x="0" y="0" width="100" height="134"/><text class="er entityLabel" id="text-entity-Item-8a1f935b-4333-55f4-bdb2-98b6af61c805" x="0" y="0" transform="translate(50,12)" style="dominant-baseline: middle; text-anchor: middle; font-size: 12px;">Item</text><rect class="er attributeBoxOdd" x="0" y="24" width="38.1796875" height="22"/><text class="er entityLabel" id="text-entity-Item-8a1f935b-4333-55f4-bdb2-98b6af61c805-attr-1-type" x="0" y="0" transform="translate(5,35)" style="dominant-baseline: middle; font-size: 10.2px;">string</text><rect class="er attributeBoxOdd" x="38.1796875" y="24" width="61.8203125" height="22"/><text class="er entityLabel" id="text-entity-Item-8a1f935b-4333-55f4-bdb2-98b6af61c805-attr-1-name" x="0" y="0" transform="translate(43.1796875,35)" style="dominant-baseline: middle; font-size: 10.2px;">product_id</text><rect class="er attributeBoxEven" x="0" y="46" width="38.1796875" height="22"/><text class="er entityLabel" id="text-entity-Item-8a1f935b-4333-55f4-bdb2-98b6af61c805-attr-2-type" x="0" y="0" transform="translate(5,57)" style="dominant-baseline: middle; font-size: 10.2px;">string</text><rect class="er attributeBoxEven" x="38.1796875" y="46" width="61.8203125" height="22"/><text class="er entityLabel" id="text-entity-Item-8a1f935b-4333-55f4-bdb2-98b6af61c805-attr-2-name" x="0" y="0" transform="translate(43.1796875,57)" style="dominant-baseline: middle; font-size: 10.2px;">sku</text><rect class="er attributeBoxOdd" x="0" y="68" width="38.1796875" height="22"/><text class="er entityLabel" id="text-entity-Item-8a1f935b-4333-55f4-bdb2-98b6af61c805-attr-3-type" x="0" y="0" transform="translate(5,79)" style="dominant-baseline: middle; font-size: 10.2px;">int</text><rect class="er attributeBoxOdd" x="38.1796875" y="68" width="61.8203125" height="22"/><text class="er entityLabel" id="text-entity-Item-8a1f935b-4333-55f4-bdb2-98b6af61c805-attr-3-name" x="0" y="0" transform="translate(43.1796875,79)" style="dominant-baseline: middle; font-size: 10.2px;">quantity</text><rect class="er attributeBoxEven" x="0" y="90" width="38.1796875" height="22"/><text class="er entityLabel" id="text-entity-Item-8a1f935b-4333-55f4-bdb2-98b6af61c805-attr-4-type" x="0" y="0" transform="translate(5,101)" style="dominant-baseline: middle; font-size: 10.2px;">float</text><rect class="er attributeBoxEven" x="38.1796875" y="90" width="61.8203125" height="22"/><text class="er entityLabel" id="text-entity-Item-8a1f935b-4333-55f4-bdb2-98b6af61c805-attr-4-name" x="0" y="0" transform="translate(43.1796875,101)" style="dominant-baseline: middle; font-size: 10.2px;">price</text><rect class="er attributeBoxOdd" x="0" y="112" width="38.1796875" height="22"/><text class="er entityLabel" id="text-entity-Item-8a1f935b-4333-55f4-bdb2-98b6af61c805-attr-5-type" x="0" y="0" transform="translate(5,123)" style="dominant-baseline: middle; font-size: 10.2px;">int</text><rect class="er attributeBoxOdd" x="38.1796875" y="112" width="61.8203125" height="22"/><text class="er entityLabel" id="text-entity-Item-8a1f935b-4333-55f4-bdb2-98b6af61c805-attr-5-name" x="0" y="0" transform="translate(43.1796875,123)" style="dominant-baseline: middle; font-size: 10.2px;">sale</text></g><g id="entity-Category-1a07ff93-e37c-5c4b-81d2-6cefab6d4eed" transform="translate(495.3949890136719,20 )"><rect class="er entityBox" x="0" y="0" width="114.30560302734375" height="178"/><text class="er entityLabel" id="text-entity-Category-1a07ff93-e37c-5c4b-81d2-6cefab6d4eed" x="0" y="0" transform="translate(57.152801513671875,12)" style="dominant-baseline: middle; text-anchor: middle; font-size: 12px;">Category</text><rect class="er attributeBoxOdd" x="0" y="24" width="52.02435302734375" height="22"/><text class="er entityLabel" id="text-entity-Category-1a07ff93-e37c-5c4b-81d2-6cefab6d4eed-attr-1-type" x="0" y="0" transform="translate(5,35)" style="dominant-baseline: middle; font-size: 10.2px;">string</text><rect class="er attributeBoxOdd" x="52.02435302734375" y="24" width="62.28125" height="22"/><text class="er entityLabel" id="text-entity-Category-1a07ff93-e37c-5c4b-81d2-6cefab6d4eed-attr-1-name" x="0" y="0" transform="translate(57.02435302734375,35)" style="dominant-baseline: middle; font-size: 10.2px;">_id</text><rect class="er attributeBoxEven" x="0" y="46" width="52.02435302734375" height="22"/><text class="er entityLabel" id="text-entity-Category-1a07ff93-e37c-5c4b-81d2-6cefab6d4eed-attr-2-type" x="0" y="0" transform="translate(5,57)" style="dominant-baseline: middle; font-size: 10.2px;">string</text><rect class="er attributeBoxEven" x="52.02435302734375" y="46" width="62.28125" height="22"/><text class="er entityLabel" id="text-entity-Category-1a07ff93-e37c-5c4b-81d2-6cefab6d4eed-attr-2-name" x="0" y="0" transform="translate(57.02435302734375,57)" style="dominant-baseline: middle; font-size: 10.2px;">name</text><rect class="er attributeBoxOdd" x="0" y="68" width="52.02435302734375" height="22"/><text class="er entityLabel" id="text-entity-Category-1a07ff93-e37c-5c4b-81d2-6cefab6d4eed-attr-3-type" x="0" y="0" transform="translate(5,79)" style="dominant-baseline: middle; font-size: 10.2px;">string</text><rect class="er attributeBoxOdd" x="52.02435302734375" y="68" width="62.28125" height="22"/><text class="er entityLabel" id="text-entity-Category-1a07ff93-e37c-5c4b-81d2-6cefab6d4eed-attr-3-name" x="0" y="0" transform="translate(57.02435302734375,79)" style="dominant-baseline: middle; font-size: 10.2px;">description</text><rect class="er attributeBoxEven" x="0" y="90" width="52.02435302734375" height="22"/><text class="er entityLabel" id="text-entity-Category-1a07ff93-e37c-5c4b-81d2-6cefab6d4eed-attr-4-type" x="0" y="0" transform="translate(5,101)" style="dominant-baseline: middle; font-size: 10.2px;">array</text><rect class="er attributeBoxEven" x="52.02435302734375" y="90" width="62.28125" height="22"/><text class="er entityLabel" id="text-entity-Category-1a07ff93-e37c-5c4b-81d2-6cefab6d4eed-attr-4-name" x="0" y="0" transform="translate(57.02435302734375,101)" style="dominant-baseline: middle; font-size: 10.2px;">productIDs</text><rect class="er attributeBoxOdd" x="0" y="112" width="52.02435302734375" height="22"/><text class="er entityLabel" id="text-entity-Category-1a07ff93-e37c-5c4b-81d2-6cefab6d4eed-attr-5-type" x="0" y="0" transform="translate(5,123)" style="dominant-baseline: middle; font-size: 10.2px;">datetime</text><rect class="er attributeBoxOdd" x="52.02435302734375" y="112" width="62.28125" height="22"/><text class="er entityLabel" id="text-entity-Category-1a07ff93-e37c-5c4b-81d2-6cefab6d4eed-attr-5-name" x="0" y="0" transform="translate(57.02435302734375,123)" style="dominant-baseline: middle; font-size: 10.2px;">created_at</text><rect class="er attributeBoxEven" x="0" y="134" width="52.02435302734375" height="22"/><text class="er entityLabel" id="text-entity-Category-1a07ff93-e37c-5c4b-81d2-6cefab6d4eed-attr-6-type" x="0" y="0" transform="translate(5,145)" style="dominant-baseline: middle; font-size: 10.2px;">datetime</text><rect class="er attributeBoxEven" x="52.02435302734375" y="134" width="62.28125" height="22"/><text class="er entityLabel" id="text-entity-Category-1a07ff93-e37c-5c4b-81d2-6cefab6d4eed-attr-6-name" x="0" y="0" transform="translate(57.02435302734375,145)" style="dominant-baseline: middle; font-size: 10.2px;">updated_at</text><rect class="er attributeBoxOdd" x="0" y="156" width="52.02435302734375" height="22"/><text class="er entityLabel" id="text-entity-Category-1a07ff93-e37c-5c4b-81d2-6cefab6d4eed-attr-7-type" x="0" y="0" transform="translate(5,167)" style="dominant-baseline: middle; font-size: 10.2px;">datetime</text><rect class="er attributeBoxOdd" x="52.02435302734375" y="156" width="62.28125" height="22"/><text class="er entityLabel" id="text-entity-Category-1a07ff93-e37c-5c4b-81d2-6cefab6d4eed-attr-7-name" x="0" y="0" transform="translate(57.02435302734375,167)" style="dominant-baseline: middle; font-size: 10.2px;">deleted_at</text></g><g id="entity-RefreshToken-141b36b0-04ae-5498-9fad-17dc3a4ed017" transform="translate(714.8021545410156,364 )"><rect class="er entityBox" x="0" y="0" width="111.94622802734375" height="156"/><text class="er entityLabel" id="text-entity-RefreshToken-141b36b0-04ae-5498-9fad-17dc3a4ed017" x="0" y="0" transform="translate(55.973114013671875,12)" style="dominant-baseline: middle; text-anchor: middle; font-size: 12px;">RefreshToken</text><rect class="er attributeBoxOdd" x="0" y="24" width="52.02435302734375" height="22"/><text class="er entityLabel" id="text-entity-RefreshToken-141b36b0-04ae-5498-9fad-17dc3a4ed017-attr-1-type" x="0" y="0" transform="translate(5,35)" style="dominant-baseline: middle; font-size: 10.2px;">string</text><rect class="er attributeBoxOdd" x="52.02435302734375" y="24" width="59.921875" height="22"/><text class="er entityLabel" id="text-entity-RefreshToken-141b36b0-04ae-5498-9fad-17dc3a4ed017-attr-1-name" x="0" y="0" transform="translate(57.02435302734375,35)" style="dominant-baseline: middle; font-size: 10.2px;">_id</text><rect class="er attributeBoxEven" x="0" y="46" width="52.02435302734375" height="22"/><text class="er entityLabel" id="text-entity-RefreshToken-141b36b0-04ae-5498-9fad-17dc3a4ed017-attr-2-type" x="0" y="0" transform="translate(5,57)" style="dominant-baseline: middle; font-size: 10.2px;">string</text><rect class="er attributeBoxEven" x="52.02435302734375" y="46" width="59.921875" height="22"/><text class="er entityLabel" id="text-entity-RefreshToken-141b36b0-04ae-5498-9fad-17dc3a4ed017-attr-2-name" x="0" y="0" transform="translate(57.02435302734375,57)" style="dominant-baseline: middle; font-size: 10.2px;">uuid</text><rect class="er attributeBoxOdd" x="0" y="68" width="52.02435302734375" height="22"/><text class="er entityLabel" id="text-entity-RefreshToken-141b36b0-04ae-5498-9fad-17dc3a4ed017-attr-3-type" x="0" y="0" transform="translate(5,79)" style="dominant-baseline: middle; font-size: 10.2px;">string</text><rect class="er attributeBoxOdd" x="52.02435302734375" y="68" width="59.921875" height="22"/><text class="er entityLabel" id="text-entity-RefreshToken-141b36b0-04ae-5498-9fad-17dc3a4ed017-attr-3-name" x="0" y="0" transform="translate(57.02435302734375,79)" style="dominant-baseline: middle; font-size: 10.2px;">userID</text><rect class="er attributeBoxEven" x="0" y="90" width="52.02435302734375" height="22"/><text class="er entityLabel" id="text-entity-RefreshToken-141b36b0-04ae-5498-9fad-17dc3a4ed017-attr-4-type" x="0" y="0" transform="translate(5,101)" style="dominant-baseline: middle; font-size: 10.2px;">datetime</text><rect class="er attributeBoxEven" x="52.02435302734375" y="90" width="59.921875" height="22"/><text class="er entityLabel" id="text-entity-RefreshToken-141b36b0-04ae-5498-9fad-17dc3a4ed017-attr-4-name" x="0" y="0" transform="translate(57.02435302734375,101)" style="dominant-baseline: middle; font-size: 10.2px;">created_at</text><rect class="er attributeBoxOdd" x="0" y="112" width="52.02435302734375" height="22"/><text class="er entityLabel" id="text-entity-RefreshToken-141b36b0-04ae-5498-9fad-17dc3a4ed017-attr-5-type" x="0" y="0" transform="translate(5,123)" style="dominant-baseline: middle; font-size: 10.2px;">datetime</text><rect class="er attributeBoxOdd" x="52.02435302734375" y="112" width="59.921875" height="22"/><text class="er entityLabel" id="text-entity-RefreshToken-141b36b0-04ae-5498-9fad-17dc3a4ed017-attr-5-name" x="0" y="0" transform="translate(57.02435302734375,123)" style="dominant-baseline: middle; font-size: 10.2px;">expires_at</text><rect class="er attributeBoxEven" x="0" y="134" width="52.02435302734375" height="22"/><text class="er entityLabel" id="text-entity-RefreshToken-141b36b0-04ae-5498-9fad-17dc3a4ed017-attr-6-type" x="0" y="0" transform="translate(5,145)" style="dominant-baseline: middle; font-size: 10.2px;">boolean</text><rect class="er attributeBoxEven" x="52.02435302734375" y="134" width="59.921875" height="22"/><text class="er entityLabel" id="text-entity-RefreshToken-141b36b0-04ae-5498-9fad-17dc3a4ed017-attr-6-name" x="0" y="0" transform="translate(57.02435302734375,145)" style="dominant-baseline: middle; font-size: 10.2px;">isRevoked</text></g><rect class="er relationshipLabelBox" x="101.99958801269531" y="229.59754943847656" width="17.861328125" height="14"/><text class="er relationshipLabel" id="rel1" x="110.93025207519531" y="236.59754943847656" style="text-anchor: middle; dominant-baseline: middle; font-size: 12px;">has</text><rect class="er relationshipLabelBox" x="270.606201171875" y="246.5" width="34.015625" height="14"/><text class="er relationshipLabel" id="rel2" x="287.614013671875" y="253.5" style="text-anchor: middle; dominant-baseline: middle; font-size: 12px;">places</text><rect class="er relationshipLabelBox" x="582.1910400390625" y="193.7985382080078" width="17.861328125" height="14"/><text class="er relationshipLabel" id="rel3" x="591.1217041015625" y="200.7985382080078" style="text-anchor: middle; dominant-baseline: middle; font-size: 12px;">has</text><rect class="er relationshipLabelBox" x="268.24749755859375" y="629.7474975585938" width="44.978515625" height="14"/><text class="er relationshipLabel" id="rel4" x="290.73675537109375" y="636.7474975585938" style="text-anchor: middle; dominant-baseline: middle; font-size: 12px;">contains</text><rect class="er relationshipLabelBox" x="591.3984985351562" y="628.4586791992188" width="17.861328125" height="14"/><text class="er relationshipLabel" id="rel5" x="600.3291625976562" y="635.4586791992188" style="text-anchor: middle; dominant-baseline: middle; font-size: 12px;">has</text><rect class="er relationshipLabelBox" x="530.0587158203125" y="241" width="44.978515625" height="14"/><text class="er relationshipLabel" id="rel6" x="552.5479736328125" y="248" style="text-anchor: middle; dominant-baseline: middle; font-size: 12px;">contains</text><rect class="er relationshipLabelBox" x="400.80426025390625" y="640.236083984375" width="75.40625" height="14"/><text class="er relationshipLabel" id="rel7" x="438.50738525390625" y="647.236083984375" style="text-anchor: middle; dominant-baseline: middle; font-size: 12px;">referenced_in</text></svg>